<?xml version="1.0" standalone="no"?>
<!DOCTYPE svg PUBLIC "-//W3C//DTD SVG 20010904//EN"
 "http://www.w3.org/TR/2001/REC-SVG-20010904/DTD/svg10.dtd">
<svg version="1.0" xmlns="http://www.w3.org/2000/svg"
 width="147.000000pt" height="120.000000pt" viewBox="0 0 147.000000 120.000000"
 preserveAspectRatio="xMidYMid meet">

<g transform="translate(0.000000,120.000000) scale(0.100000,-0.100000)"
fill="#000000" stroke="none">
<path d="M0 600 l0 -600 735 0 735 0 0 600 0 600 -735 0 -735 0 0 -600z m1170
310 l0 -90 -455 0 -455 0 0 90 0 90 455 0 455 0 0 -90z m0 -275 l0 -95 -455 0
-455 0 0 95 0 95 455 0 455 0 0 -95z m0 -275 l0 -90 -455 0 -455 0 0 90 0 90
455 0 455 0 0 -90z"/>
<path d="M350 905 l0 -45 45 0 45 0 0 45 0 45 -45 0 -45 0 0 -45z"/>
<path d="M350 635 l0 -45 45 0 45 0 0 45 0 45 -45 0 -45 0 0 -45z"/>
<path d="M350 365 l0 -45 45 0 45 0 0 45 0 45 -45 0 -45 0 0 -45z"/>
</g>
</svg>
